<?xml version="1.0" encoding="UTF-8"?>
<svg id="Layer_2" data-name="Layer 2" xmlns="http://www.w3.org/2000/svg" viewBox="0 0 144 144">
  <defs>
    <style>
      .cls-1 {
        fill: #f05f8b;
      }

      .cls-1, .cls-2 {
        opacity: .5;
      }

      .cls-2 {
        fill: #89c7ed;
      }
    </style>
  </defs>
  <g id="Layer_1-2" data-name="Layer 1">
    <path class="cls-2" d="m36,144V36C36,16.12,52.12,0,72,0h0v108c0,19.88-16.12,36-36,36h0Z"/>
    <path class="cls-1" d="m108,108V0h0c-19.88,0-36,16.12-36,36v108h0c19.88,0,36-16.12,36-36Z"/>
    <path class="cls-2" d="m36,72h108s0,0,0,0c0,19.88-16.12,36-36,36H0s0,0,0,0c0-19.88,16.12-36,36-36Z"/>
    <path class="cls-1" d="m0,72h108c19.88,0,36-16.12,36-36h0s-108,0-108,0C16.12,36,0,52.12,0,72h0Z"/>
  </g>
</svg>