<?xml version="1.0" encoding="UTF-8"?>
<svg id="Layer_2" data-name="Layer 2" xmlns="http://www.w3.org/2000/svg" viewBox="0 0 191.31 71.48">
  <g id="Layer_1-2" data-name="Layer 1">
    <g>
      <path class="cls-1" d="m43.46,71.24h-6.01v-25.78c0-2.83-.42-5.48-1.25-7.96-.83-2.47-1.99-4.64-3.47-6.49-1.48-1.86-3.19-3.25-5.13-4.2-1.94-.94-3.9-1.42-5.88-1.42s-4,.47-5.93,1.42c-1.94.94-3.67,2.36-5.2,4.25-2.7,3.39-4.25,7.63-4.64,12.74v27.44H0V0h5.96v27.25c2.12-2.57,4.54-4.52,7.28-5.83s5.55-1.98,8.45-1.98,5.71.66,8.45,1.98,5.16,3.28,7.28,5.88c3.68,4.66,5.7,10.38,6.05,17.19v26.76Z"/>
      <path class="cls-1" d="m80.71,71.48c-4.69,0-8.98-1.19-12.89-3.56s-7.03-5.54-9.38-9.5-3.52-8.28-3.52-12.96,1.16-9.05,3.49-12.99c2.33-3.94,5.44-7.1,9.35-9.47,3.91-2.38,8.22-3.56,12.94-3.56s8.98,1.18,12.89,3.54c3.91,2.36,7.03,5.52,9.38,9.47s3.52,8.29,3.52,13.01c0,3.55-.68,6.91-2.03,10.08s-3.19,5.94-5.52,8.3c-2.33,2.36-5.07,4.22-8.23,5.59-3.16,1.37-6.49,2.05-10.01,2.05Zm0-6.01c3.68,0,7.01-.89,10.01-2.66,2.99-1.77,5.37-4.17,7.13-7.18,1.76-3.01,2.64-6.4,2.64-10.18s-.87-7.18-2.61-10.21-4.11-5.42-7.1-7.18c-3-1.76-6.35-2.64-10.06-2.64s-7.06.88-10.06,2.64c-3,1.76-5.37,4.15-7.13,7.18s-2.64,6.43-2.64,10.21.87,7.08,2.61,10.11c1.74,3.03,4.11,5.44,7.1,7.23,2.99,1.79,6.36,2.69,10.11,2.69Z"/>
      <path class="cls-1" d="m125.15,71.24h-5.96V21.88h5.96v5.96c.98-1.76,4.92-4.18,11.82-7.28v6.49c-3.74,1.92-6.6,4.39-8.57,7.4-1.97,3.01-3.04,6.42-3.2,10.23-.03.72-.05,9.57-.05,26.56Z"/>
      <path class="cls-1" d="m165.48,71.48c-4.69,0-8.98-1.19-12.89-3.56s-7.03-5.53-9.38-9.47c-2.34-3.94-3.52-8.27-3.52-12.99s1.17-9.06,3.52-13.01,5.47-7.11,9.38-9.47c3.91-2.36,8.2-3.54,12.89-3.54,3.25,0,6.3.51,9.13,1.54s5.19,2.19,7.08,3.49c1.89,1.3,3.11,2.46,3.66,3.47v-6.05h5.96v49.37h-5.96v-8.25c-.55.98-1.77,2.12-3.66,3.42-1.89,1.3-4.25,2.47-7.08,3.52s-5.88,1.56-9.13,1.56Zm0-6.01c3.71,0,7.06-.89,10.03-2.66,2.98-1.77,5.35-4.17,7.1-7.2s2.64-6.41,2.64-10.16-.87-7.13-2.61-10.16c-1.74-3.03-4.11-5.43-7.1-7.2-3-1.77-6.35-2.66-10.06-2.66s-7.1.88-10.08,2.64-5.35,4.15-7.1,7.18-2.64,6.43-2.64,10.21.88,7.17,2.64,10.18c1.76,3.01,4.13,5.4,7.13,7.18,2.99,1.77,6.35,2.66,10.06,2.66Z"/>
    </g>
  </g>
</svg>